<svg width="78" height="94" viewBox="0 0 78 94" fill="none" xmlns="http://www.w3.org/2000/svg">
<path d="M56.9946 28.7891H7.61479C3.41607 28.7891 0 32.2051 0 36.4038V85.7836C0 89.9824 3.41607 93.3985 7.61479 93.3985H56.9946C61.1934 93.3985 64.6094 89.9824 64.6094 85.7836V36.4036C64.6096 32.2049 61.1934 28.7891 56.9946 28.7891Z" fill="#50D399"/>
<path d="M69.6637 8.313C64.2881 2.95229 57.1408 0 49.5382 0C41.9357 0 34.7883 2.95229 29.4128 8.313C18.3155 19.3798 18.3155 37.3864 29.4128 48.4531L48.5697 67.5571C48.8371 67.8238 49.1877 67.9571 49.5382 67.9571C49.8887 67.9571 50.2394 67.8236 50.5068 67.5571L69.6637 48.4531C75.0393 43.0922 77.9997 35.9648 77.9997 28.3832C77.9997 20.8013 75.0393 13.6737 69.6637 8.313Z" fill="#E25165"/>
<path d="M49.5 44C58.0604 44 65 37.0604 65 28.5C65 19.9396 58.0604 13 49.5 13C40.9396 13 34 19.9396 34 28.5C34 37.0604 40.9396 44 49.5 44Z" fill="white"/>
<path d="M5 93L25.5 72.5L0 47.8711V85.6167C0 88.8569 2.15443 91.9 5 93Z" fill="#FFE5A8"/>
<path d="M29.5 76L13.0547 93.4007H45.5268L29.5 76Z" fill="#B3E8EA"/>
<path d="M33.6804 72.8482L29.3147 68.4825L0 39.168V47.9009L24.9487 72.8482L4.90566 92.8912C5.75597 93.2184 6.67808 93.3997 7.64215 93.3997H13.1285L29.3144 77.2138L45.5004 93.3997H54.2318L33.6804 72.8482Z" fill="#E7E7F2"/>
</svg>
